<mxfile host="app.diagrams.net" modified="2023-10-13T19:43:26.716Z" agent="Mozilla/5.0 (Macintosh; Intel Mac OS X 10_15_7) AppleWebKit/537.36 (KHTML, like Gecko) Chrome/117.0.0.0 Safari/537.36" version="22.0.4" etag="81DFFv3dyEiHJxkwq-h6" type="github">
  <diagram name="Page-1" id="h4aV8WJyjeYdLXzTAKoX">
    <mxGraphModel>
      <root>
        <mxCell id="0" />
        <mxCell id="1" parent="0" />
      </root>
    </mxGraphModel>
  </diagram>
</mxfile>
